<svg width="24" height="24" viewBox="0 0 24 24" fill="none" xmlns="http://www.w3.org/2000/svg">
<path d="M22 5.12968C21.2639 5.49108 20.4741 5.73618 19.6442 5.8456C20.4915 5.28339 21.1402 4.39164 21.4476 3.33232C20.6527 3.85297 19.7754 4.23102 18.8406 4.43596C18.092 3.55113 17.0271 3 15.8461 3C13.5803 3 11.7431 5.03554 11.7431 7.54465C11.7431 7.90051 11.7794 8.24808 11.8494 8.58044C8.44001 8.3907 5.41684 6.58089 3.39347 3.83081C3.03977 4.50103 2.83856 5.28198 2.83856 6.11561C2.83856 7.69282 3.56343 9.08446 4.66324 9.89865C3.99085 9.87374 3.35847 9.6688 2.80484 9.32815V9.38492C2.80484 11.5866 4.21958 13.4241 6.09546 13.8423C5.75177 13.9448 5.38935 14.0016 5.01442 14.0016C4.74948 14.0016 4.49327 13.9725 4.24206 13.9171C4.76445 15.7242 6.27919 17.0383 8.07387 17.0743C6.67037 18.2929 4.90069 19.0171 2.97856 19.0171C2.64739 19.0171 2.32118 18.9949 2 18.9548C3.81592 20.2467 5.97177 21 8.28883 21C15.8362 21 19.9617 14.0736 19.9617 8.06671L19.9479 7.47821C20.754 6.84119 21.4513 6.04084 22 5.12968Z" fill="#D4D7E6"/>
</svg>
